<?xml version="1.0" standalone="no"?>
<!DOCTYPE svg PUBLIC "-//W3C//DTD SVG 20010904//EN"
 "http://www.w3.org/TR/2001/REC-SVG-20010904/DTD/svg10.dtd">
<svg version="1.0" xmlns="http://www.w3.org/2000/svg"
 width="600.000000pt" height="850.000000pt" viewBox="0 180 600 850"
 preserveAspectRatio="xMidYMid meet">
<g transform="translate(0.000000,1067.000000) scale(0.100000,-0.100000)"
fill="#000000" stroke="none">
<path d="M4330 6821 c-8 -5 -60 -12 -115 -15 -55 -4 -104 -12 -109 -17 -6 -5
-20 -9 -32 -9 -13 0 -25 -4 -28 -9 -4 -5 -29 -12 -56 -16 -27 -4 -52 -11 -56
-16 -3 -5 -14 -9 -25 -9 -10 0 -27 -4 -37 -9 -39 -22 -84 -40 -112 -46 -16 -4
-32 -11 -35 -16 -4 -5 -15 -9 -26 -9 -10 0 -19 -4 -19 -10 0 -5 -6 -10 -14
-10 -25 0 -190 -125 -267 -203 -79 -80 -183 -224 -195 -271 -7 -30 -16 -32
-38 -10 -39 39 -106 64 -171 64 -35 0 -66 -4 -69 -9 -3 -4 -20 -11 -37 -15
-17 -3 -54 -22 -80 -41 -27 -19 -51 -35 -54 -35 -3 0 -9 10 -14 23 -14 37
-127 174 -210 257 -105 104 -236 189 -391 252 -14 6 -32 14 -40 18 -9 4 -31
11 -50 14 -19 4 -44 11 -55 16 -11 5 -56 16 -100 25 -44 9 -94 20 -111 26 -40
12 -222 12 -276 -1 -24 -5 -81 -17 -128 -25 -47 -9 -94 -20 -105 -24 -11 -5
-45 -16 -75 -26 -116 -39 -176 -93 -241 -220 -50 -98 -64 -220 -48 -410 28
-324 41 -441 58 -505 33 -125 45 -166 52 -175 4 -5 10 -26 14 -45 4 -19 11
-41 15 -50 50 -100 70 -133 109 -182 25 -32 60 -65 78 -75 18 -10 33 -20 33
-24 0 -3 25 -14 56 -24 45 -14 74 -16 146 -11 49 4 100 11 114 16 14 6 49 10
79 10 30 0 57 5 60 10 3 6 14 10 24 10 61 0 227 69 387 161 46 27 88 49 91 49
3 0 52 29 109 65 57 36 107 65 111 65 15 1 118 86 128 106 13 24 40 32 31 9
-3 -9 -6 -19 -6 -21 0 -3 -4 -2 -10 1 -6 4 -10 -10 -10 -34 0 -22 -4 -43 -10
-46 -5 -3 -10 -17 -10 -30 0 -13 -4 -26 -9 -29 -4 -3 -11 -23 -15 -45 -7 -46
-46 -124 -82 -166 -14 -17 -87 -93 -162 -170 -105 -108 -145 -155 -170 -206
-17 -36 -32 -72 -32 -80 0 -8 -5 -20 -11 -26 -8 -8 -13 -85 -16 -235 -3 -209
-18 -368 -34 -368 -4 0 -9 -10 -13 -23 -13 -54 -110 -175 -271 -340 -49 -51
-106 -113 -127 -137 -41 -51 -98 -156 -98 -182 0 -9 -5 -20 -10 -23 -6 -3 -10
-22 -10 -41 0 -19 -5 -54 -10 -77 -16 -66 20 -452 50 -522 53 -127 71 -151
126 -163 38 -8 135 5 150 20 4 5 14 8 23 8 9 0 38 11 65 25 27 14 55 25 63 25
7 0 28 14 45 31 27 25 32 38 32 71 -1 22 -6 49 -11 61 -13 28 -67 206 -82 270
-6 26 -11 92 -11 147 0 89 3 105 24 138 26 40 75 88 176 172 36 29 90 79 121
110 62 62 199 264 199 292 0 10 3 18 8 18 4 0 16 35 26 78 21 88 20 105 -24
353 -22 123 -5 273 41 357 13 24 47 69 75 100 77 86 164 232 164 276 0 8 4 17
9 20 5 3 11 23 14 43 10 69 39 288 42 318 2 23 6 29 21 26 11 -2 53 -4 94 -5
65 0 82 4 125 29 63 36 71 44 79 82 4 18 14 37 22 44 8 6 14 19 14 28 0 13 2
14 9 2 6 -10 3 -19 -11 -31 -18 -14 -20 -27 -19 -121 3 -293 26 -419 104 -569
40 -76 108 -169 184 -250 107 -116 213 -264 247 -350 10 -25 22 -54 27 -65 13
-34 32 -148 32 -195 0 -47 -19 -161 -32 -195 -5 -11 -16 -54 -26 -95 -9 -41
-21 -84 -25 -95 -27 -64 -43 -253 -28 -330 3 -16 9 -48 14 -70 4 -22 28 -82
54 -135 60 -121 80 -165 80 -179 0 -6 4 -19 9 -29 15 -28 31 -153 32 -254 1
-95 5 -118 26 -153 10 -17 22 -20 88 -19 43 1 80 5 84 10 3 5 18 16 32 24 15
8 49 35 77 60 28 25 69 60 91 78 46 37 101 124 101 160 0 12 -4 30 -9 40 -5 9
-24 49 -42 87 -19 39 -47 93 -65 120 -28 45 -47 84 -74 150 -5 11 -15 36 -23
55 -34 82 -47 122 -47 149 0 15 -3 31 -7 35 -9 9 -35 140 -35 176 -1 36 22
154 30 160 8 5 31 62 39 95 2 11 9 29 14 40 9 21 27 89 36 140 3 17 9 35 14
40 4 6 13 48 18 94 16 127 -4 281 -47 358 -7 12 -12 29 -12 37 0 9 -3 16 -8
16 -4 0 -13 14 -21 30 -32 74 -211 277 -281 320 -33 20 -180 161 -180 172 0 9
-2 12 -48 68 -67 80 -179 290 -167 310 3 5 32 -3 63 -19 31 -16 75 -36 97 -46
22 -9 49 -20 60 -25 65 -28 215 -84 273 -101 37 -11 76 -24 87 -29 11 -5 31
-11 45 -15 14 -4 50 -13 80 -21 104 -28 261 -42 366 -32 54 5 102 12 108 16 6
4 37 16 69 27 31 10 57 22 57 27 0 4 6 8 14 8 18 0 146 100 202 158 41 44 81
108 76 125 -1 4 3 7 8 7 6 0 10 11 10 24 0 14 4 27 9 30 5 4 12 25 16 49 3 23
10 51 14 62 27 68 33 105 37 235 6 150 7 138 -47 375 -6 28 -15 54 -20 60 -5
5 -9 19 -9 31 0 13 -4 25 -9 29 -5 3 -12 19 -16 35 -4 17 -10 30 -15 30 -4 0
-11 12 -15 27 -13 55 -196 203 -250 203 -7 0 -15 4 -17 10 -8 24 -332 52 -368
31z m177 -27 c-3 -3 -12 -4 -19 -1 -8 3 -5 6 6 6 11 1 17 -2 13 -5z m-367 -38
c0 -2 -11 -6 -25 -8 -13 -3 -22 -1 -19 3 5 9 44 13 44 5z m509 -13 c3 -6 19
-13 35 -17 35 -9 164 -131 187 -178 29 -58 49 -106 49 -117 0 -6 4 -19 9 -29
13 -25 41 -121 41 -141 0 -10 3 -21 7 -25 10 -10 13 -28 21 -171 9 -155 2
-215 -55 -432 -3 -13 -9 -23 -14 -23 -5 0 -9 -8 -9 -18 0 -17 -47 -92 -74
-117 -79 -75 -219 -161 -311 -190 -71 -22 -97 -26 -162 -22 -43 3 -98 10 -123
15 -25 6 -67 16 -95 22 -27 6 -59 15 -70 20 -11 5 -45 16 -75 25 -30 9 -64 20
-75 25 -11 4 -42 16 -70 25 -27 10 -54 22 -59 26 -6 5 -17 9 -25 9 -9 0 -29 7
-45 15 -15 8 -32 15 -36 15 -5 0 -41 15 -82 34 -144 66 -167 76 -178 76 -5 0
-18 4 -28 9 -32 17 -124 41 -156 41 -48 0 -55 12 -42 80 7 38 20 69 38 88 l26
30 74 -17 c40 -10 96 -28 123 -40 83 -37 88 -39 140 -56 28 -10 59 -21 70 -26
50 -21 208 -69 230 -69 13 0 26 -4 29 -9 3 -5 23 -12 43 -15 214 -35 259 -39
388 -37 176 3 246 13 313 48 111 58 152 157 152 364 -1 144 -9 181 -64 289
-39 74 -150 185 -196 195 -19 4 -40 11 -46 17 -15 11 -223 12 -255 0 -13 -5
-50 -12 -81 -16 -32 -4 -58 -12 -58 -17 0 -5 -9 -9 -20 -9 -11 0 -28 -4 -38
-9 -9 -6 -44 -18 -77 -27 -58 -17 -151 -55 -225 -93 -53 -27 -152 -83 -164
-92 -6 -5 -45 -36 -86 -68 -81 -64 -268 -244 -287 -276 -10 -16 -12 -1 -12 83
-1 96 1 108 30 165 58 118 158 243 275 345 58 51 217 152 239 152 8 0 15 5 15
10 0 6 8 10 18 10 9 0 30 7 46 15 15 8 36 15 45 15 9 0 21 4 27 9 5 4 27 13
49 19 22 5 67 18 100 27 61 17 129 30 245 45 82 10 320 5 329 -7z m-679 -33
c0 -5 -4 -10 -10 -10 -5 0 -10 5 -10 10 0 6 5 10 10 10 6 0 10 -4 10 -10z
m874 -44 c3 -12 10 -16 20 -13 9 4 15 1 13 -6 -1 -7 4 -11 11 -9 6 1 11 -1 10
-5 -2 -5 9 -24 25 -44 15 -20 27 -45 27 -57 0 -11 7 -28 16 -37 9 -8 13 -22
10 -30 -3 -8 0 -14 7 -12 8 1 12 -12 11 -38 -1 -22 1 -34 3 -27 9 23 23 1 23
-37 0 -20 5 -42 12 -49 7 -7 9 -12 6 -12 -4 0 -2 -15 3 -32 15 -52 22 -116 23
-213 2 -142 -16 -252 -58 -360 l-16 -40 2 35 c1 19 6 40 11 47 5 7 5 18 1 24
-5 8 -3 9 6 4 10 -6 12 -1 8 20 -3 15 -1 42 4 59 22 67 7 329 -24 446 -12 41
-20 83 -20 93 0 9 -3 17 -9 17 -5 0 -8 3 -8 8 1 4 1 23 0 42 -1 27 -4 31 -11
20 -8 -12 -10 -12 -10 5 0 11 -11 42 -25 69 -13 27 -22 52 -20 57 3 4 0 11 -6
15 -8 5 -10 2 -5 -7 5 -8 -3 0 -17 16 -39 47 -62 72 -57 60 3 -6 -3 -2 -12 8
-27 29 -21 38 11 19 17 -9 32 -25 35 -36z m-3089 15 c28 -6 58 -16 67 -21 10
-6 26 -10 36 -10 19 0 96 -23 147 -44 17 -7 46 -19 65 -27 59 -22 218 -106
257 -136 104 -76 170 -134 231 -204 137 -156 171 -215 143 -245 -5 -5 -12 -34
-15 -65 -6 -44 -4 -58 8 -69 11 -8 16 -9 17 -1 1 6 3 23 4 39 2 15 6 41 10 57
11 47 9 119 -3 123 -7 2 -12 9 -12 16 0 15 -62 98 -102 136 -15 15 -25 30 -21
33 9 9 33 -13 33 -30 0 -8 4 -12 9 -8 5 3 12 -4 16 -15 4 -11 10 -18 15 -15 5
3 12 -5 16 -17 4 -13 15 -30 25 -39 11 -9 19 -22 19 -28 0 -7 15 -18 33 -26
17 -8 26 -14 18 -15 -8 0 -11 -3 -8 -6 3 -4 2 -15 -4 -26 -6 -11 -11 -40 -11
-64 0 -24 -4 -46 -9 -50 -11 -6 -11 -261 0 -289 5 -11 4 -28 0 -37 -7 -14 -6
-16 6 -12 8 4 15 1 15 -5 0 -17 -31 -26 -40 -11 -4 6 -4 27 0 46 5 19 4 34 -1
34 -5 0 -9 16 -9 36 0 42 -13 69 -50 105 -14 14 -24 31 -22 39 3 7 0 10 -7 6
-7 -5 -9 -1 -4 9 3 9 9 12 12 7 3 -5 20 -12 36 -16 l30 -6 -31 27 c-17 16 -46
48 -66 73 -101 129 -399 390 -444 390 -7 0 -14 3 -16 8 -7 17 -179 90 -253
107 -44 9 -91 23 -104 29 -32 15 -313 15 -332 0 -8 -6 -33 -14 -56 -18 -56 -8
-171 -75 -207 -120 -35 -43 -49 -116 -49 -256 0 -116 26 -296 53 -365 4 -11
15 -42 25 -70 41 -123 84 -202 138 -256 27 -27 55 -49 63 -49 8 0 14 -4 14 -9
0 -5 15 -13 33 -16 17 -4 37 -12 44 -17 24 -20 274 4 338 31 11 5 41 17 67 28
27 10 48 21 48 26 0 4 5 7 10 7 10 0 135 75 157 95 6 5 26 21 44 35 18 14 63
50 99 80 37 30 109 89 160 130 51 41 103 86 116 100 13 13 25 22 26 20 2 -3
24 -30 49 -60 40 -48 47 -63 52 -113 l6 -59 -67 -67 c-78 -78 -153 -135 -237
-181 -33 -18 -67 -38 -75 -45 -20 -17 -314 -165 -327 -165 -6 0 -24 -7 -39
-15 -16 -8 -41 -15 -56 -15 -16 0 -28 -4 -28 -10 0 -5 -13 -10 -29 -10 -17 0
-32 -4 -35 -9 -4 -5 -30 -12 -59 -16 -28 -4 -55 -11 -58 -16 -3 -5 -66 -10
-140 -12 -131 -2 -137 -1 -192 27 -53 26 -104 74 -152 140 -24 34 -74 123 -75
134 0 11 -10 45 -20 67 -16 37 -40 124 -40 142 0 11 -4 23 -9 28 -14 15 -32
194 -56 576 -17 265 63 428 230 465 17 4 35 10 40 14 6 4 30 10 55 13 25 4 66
11 92 16 26 6 64 11 83 13 19 1 35 6 35 11 0 11 162 3 225 -12z m82 13 c-3 -3
-12 -4 -19 -1 -8 3 -5 6 6 6 11 1 17 -2 13 -5z m198 -55 c4 -6 13 -8 21 -5 20
8 44 -4 44 -20 0 -8 -7 -14 -16 -14 -8 0 -13 4 -10 9 3 5 -10 12 -29 15 -19 4
-35 11 -35 16 0 13 17 13 25 -1z m105 -40 c0 -5 -4 -9 -10 -9 -5 0 -10 7 -10
16 0 8 5 12 10 9 6 -3 10 -10 10 -16z m1561 3 c-20 -14 -60 -28 -49 -17 1 2 7
4 11 4 4 0 15 7 23 16 9 8 21 15 27 14 7 0 1 -8 -12 -17z m-1508 -15 c4 3 7 1
7 -5 0 -6 7 -9 17 -5 10 4 14 2 10 -4 -7 -11 33 -33 59 -33 8 0 17 -6 20 -14
3 -8 20 -20 37 -27 18 -7 38 -19 46 -27 8 -8 38 -32 67 -54 37 -28 51 -44 47
-55 -4 -11 -2 -14 5 -9 14 8 55 -31 47 -45 -4 -5 -30 14 -60 44 -29 29 -59 51
-65 49 -8 -3 -10 0 -6 7 4 6 1 11 -8 11 -14 0 -20 11 -18 31 1 4 -8 4 -20 1
-14 -3 -19 -1 -14 6 5 8 2 10 -8 6 -11 -4 -16 0 -17 12 0 11 -3 14 -6 6 -3 -9
-9 -7 -21 7 -17 19 -69 48 -129 73 -18 7 -33 16 -33 19 0 13 14 18 25 9 7 -5
15 -7 18 -3z m1442 -25 c-11 -3 -25 -12 -31 -21 -7 -9 -16 -13 -20 -9 -11 11
38 46 56 40 12 -5 11 -7 -5 -10z m-65 -53 c0 -5 -4 -9 -10 -9 -5 0 -10 7 -10
16 0 8 5 12 10 9 6 -3 10 -10 10 -16z m-30 -9 c0 -5 -7 -10 -15 -10 -8 0 -14
-3 -14 -7 4 -22 -3 -32 -16 -27 -13 5 -11 11 10 30 29 26 35 29 35 14z m-1757
-69 c31 -7 55 -16 53 -20 -3 -4 8 -5 25 -3 17 3 29 0 29 -7 0 -6 15 -11 32
-11 31 0 139 -46 146 -62 2 -5 12 -8 22 -8 10 0 22 -5 25 -10 4 -6 11 -8 16
-5 5 4 9 2 9 -3 0 -5 18 -17 40 -27 22 -10 40 -22 40 -27 0 -4 7 -8 15 -8 9 0
18 -7 21 -15 4 -8 13 -15 21 -15 13 0 13 -3 3 -15 -13 -15 -35 -11 -25 6 4 5
-3 9 -13 9 -11 0 -25 7 -32 15 -7 8 -19 15 -26 15 -8 0 -14 4 -14 9 0 5 -16
16 -35 25 -19 9 -35 22 -35 28 0 5 -7 7 -15 4 -9 -3 -18 1 -21 9 -4 8 -18 15
-33 15 -14 1 -37 7 -51 15 -14 8 -35 14 -48 15 -13 0 -21 4 -18 8 3 5 -30 14
-72 21 -42 7 -87 17 -100 22 -13 5 -37 9 -53 9 -17 0 -39 5 -50 10 -10 6 -19
7 -19 3 0 -4 -29 -9 -65 -10 -36 -1 -65 2 -65 7 0 5 4 10 10 12 25 8 231 0
283 -11z m1690 1 c-10 -10 -20 -17 -22 -16 -3 3 -57 -58 -99 -111 -14 -17 -21
-22 -18 -12 3 10 6 23 6 28 0 5 7 9 15 9 8 0 14 4 13 10 -4 13 92 110 109 110
9 0 8 -5 -4 -18z m-2003 -12 c0 -5 -4 -10 -10 -10 -5 0 -10 5 -10 10 0 6 5 10
10 10 6 0 10 -4 10 -10z m3109 -20 c31 -22 106 -107 132 -150 14 -22 33 -76
60 -166 12 -42 12 -251 -1 -259 -5 -3 -10 -17 -10 -30 0 -32 -44 -114 -79
-146 -15 -15 -43 -30 -62 -34 -19 -4 -39 -12 -46 -17 -20 -16 -377 -11 -468 7
-113 23 -263 63 -280 76 -5 4 -27 10 -47 14 -21 4 -38 11 -38 16 0 5 -6 9 -14
9 -7 0 -27 7 -42 15 -16 8 -36 15 -45 15 -9 0 -18 3 -22 6 -6 6 -72 31 -197
74 -30 11 -71 20 -90 20 -33 1 -34 1 -15 16 11 8 62 53 112 100 51 47 109 99
130 116 21 16 40 33 43 37 3 4 12 10 20 14 19 9 54 30 60 38 13 14 227 119
244 119 9 0 16 4 16 9 0 5 18 12 40 16 22 4 42 11 46 16 3 5 15 9 28 9 12 0
26 4 31 9 6 4 30 14 55 20 25 7 61 17 80 22 136 40 310 45 359 9z m-2799 -30
c41 -6 79 -16 84 -21 6 -5 20 -9 33 -9 12 0 37 -6 55 -14 18 -8 49 -21 68 -29
19 -9 39 -16 44 -15 5 0 12 -4 15 -9 3 -4 23 -17 44 -28 21 -11 47 -28 57 -37
11 -10 22 -18 25 -18 15 0 104 -74 223 -187 107 -101 130 -128 121 -139 -6 -8
-17 -14 -24 -14 -8 0 -15 -4 -17 -8 -1 -4 -30 -28 -63 -54 -33 -25 -69 -54
-80 -65 -11 -10 -54 -45 -95 -78 -41 -33 -77 -63 -80 -66 -19 -23 -157 -112
-215 -138 -103 -48 -105 -49 -173 -65 -71 -18 -217 -21 -227 -6 -3 6 -17 10
-29 10 -27 0 -91 40 -127 80 -36 41 -129 233 -129 268 0 10 -4 22 -9 28 -4 5
-16 50 -26 99 -23 115 -25 425 -4 451 17 21 111 64 141 64 13 0 30 5 38 10 19
13 250 6 350 -10z m-822 -81 c2 -19 -2 -28 -8 -24 -12 7 -14 55 -2 55 4 0 9
-14 10 -31z m246 -41 c-10 -30 -5 -246 6 -323 18 -121 35 -197 43 -189 4 4 7
-1 7 -12 0 -23 52 -158 62 -162 5 -2 6 -8 2 -13 -3 -5 0 -9 5 -9 6 0 11 -9 11
-20 0 -11 6 -23 14 -26 9 -3 12 -12 9 -21 -4 -10 -2 -14 4 -10 11 7 28 -20 24
-36 -1 -5 3 -6 8 -3 5 4 18 -5 29 -19 11 -13 23 -21 27 -17 5 4 5 2 2 -4 -4
-8 6 -14 29 -19 22 -4 34 -11 31 -18 -3 -8 4 -13 17 -13 104 -1 126 -5 126
-20 0 -8 -4 -13 -9 -10 -9 6 -104 18 -133 18 -10 -1 -20 3 -23 9 -4 5 -13 9
-21 9 -8 0 -22 7 -31 16 -10 8 -37 29 -61 45 -23 16 -40 34 -37 39 3 5 -3 19
-13 31 -21 22 -82 181 -82 213 0 11 -3 16 -7 12 -11 -10 -41 114 -45 182 0 17
-4 32 -7 32 -10 0 -10 310 -1 336 12 30 24 32 14 2z m2102 -4 c-9 -8 -16 -20
-16 -25 0 -5 -4 -9 -9 -9 -5 0 -4 11 2 25 7 14 18 25 25 25 10 0 9 -4 -2 -16z
m-2351 -51 c-2 -20 0 -44 5 -52 4 -9 11 -79 15 -156 3 -77 7 -156 8 -175 1
-19 6 -41 10 -47 5 -7 6 -16 4 -20 -3 -5 -1 -30 4 -58 5 -27 12 -74 15 -104 3
-30 14 -72 25 -95 10 -23 20 -53 21 -68 1 -16 5 -28 8 -28 10 0 30 -63 23 -74
-3 -6 -2 -8 2 -3 5 4 19 -16 32 -44 27 -57 103 -156 139 -180 13 -8 22 -18 19
-21 -3 -2 13 -11 35 -18 22 -7 40 -17 40 -21 0 -30 275 -28 333 3 12 6 17 5
17 -3 0 -8 6 -7 18 4 21 19 73 26 79 11 5 -14 -60 -31 -157 -40 -41 -3 -83
-11 -92 -15 -9 -5 -59 -10 -110 -11 -87 -1 -98 1 -158 31 -59 30 -129 97 -128
125 0 5 -5 12 -10 15 -18 11 -63 101 -83 169 -12 37 -26 72 -31 79 -5 7 -7 17
-3 23 3 5 2 10 -2 10 -8 0 -26 69 -38 150 -3 19 -10 55 -16 80 -5 25 -12 79
-15 120 -3 41 -7 93 -9 115 -2 22 -6 96 -10 165 -4 69 -7 127 -8 130 0 7 14
40 18 40 2 0 1 -17 0 -37z m1375 -35 c0 -4 -11 -2 -25 4 -27 12 -32 24 -12 31
11 4 36 -20 37 -35z m940 32 c0 -5 -5 -10 -11 -10 -5 0 -7 5 -4 10 3 6 8 10
11 10 2 0 4 -4 4 -10z m-214 -21 c7 -6 17 -8 22 -5 5 3 19 -4 30 -15 12 -11
22 -17 22 -13 0 4 8 -2 18 -14 21 -24 49 -23 68 3 18 25 18 6 -1 -38 -8 -20
-15 -52 -15 -71 0 -42 -23 -40 -38 2 -11 32 -37 61 -74 85 -44 27 -127 56
-148 50 -11 -3 -20 -2 -20 1 0 20 115 33 136 15z m-681 -41 c14 -12 24 -27 21
-34 -3 -7 3 -10 15 -7 10 3 19 1 19 -5 0 -5 29 -39 65 -74 36 -36 65 -73 65
-84 0 -16 -3 -15 -18 7 -15 24 -54 62 -139 139 -64 58 -90 112 -28 58z m610
-19 c79 -20 122 -48 146 -97 22 -43 24 -57 22 -190 -2 -251 -24 -281 -220
-298 -72 -6 -109 9 -145 58 -22 32 -23 39 -22 216 1 121 5 187 13 195 6 6 11
22 11 35 0 28 50 79 83 85 41 8 72 7 112 -4z m215 -174 c0 -5 -5 -3 -10 5 -5
8 -10 20 -10 25 0 6 5 3 10 -5 5 -8 10 -19 10 -25z m-610 -26 c0 -6 7 -17 15
-25 19 -20 19 -34 0 -34 -16 0 -19 5 -30 53 -4 19 -2 26 5 22 5 -3 10 -11 10
-16z m631 -70 c18 -11 26 -11 34 1 3 6 14 10 23 9 14 0 13 -2 -3 -9 -25 -11
-76 -56 -76 -67 -1 -4 -3 -10 -5 -12 -2 -2 -3 34 -3 80 1 67 3 76 9 45 4 -21
13 -42 21 -47z m1760 -235 c-12 -19 -18 -40 -15 -46 4 -6 2 -8 -4 -4 -6 3 -13
-3 -17 -14 -3 -11 -11 -20 -16 -20 -11 0 -12 17 -1 22 4 2 18 24 31 51 13 26
28 47 33 47 6 0 0 -16 -11 -36z m-1721 -41 c19 -3 41 -11 48 -16 16 -12 42
-69 67 -142 21 -63 67 -159 77 -163 4 -2 8 -8 8 -12 0 -28 173 -252 252 -327
166 -157 253 -252 283 -310 11 -21 22 -40 25 -43 3 -3 19 -39 35 -80 28 -71
30 -83 30 -221 0 -93 -4 -151 -11 -160 -6 -8 -14 -27 -17 -44 -11 -60 -28
-130 -37 -150 -5 -11 -16 -42 -26 -70 -10 -27 -21 -54 -24 -60 -12 -17 -41
-161 -35 -176 3 -8 12 -48 20 -89 13 -71 32 -153 39 -175 1 -5 6 -23 11 -40 4
-16 11 -34 15 -40 4 -5 11 -26 15 -45 4 -19 11 -41 15 -50 119 -236 160 -329
160 -362 0 -21 -4 -38 -10 -38 -5 0 -10 -6 -10 -14 0 -11 -134 -141 -189 -183
-27 -20 -66 -16 -79 10 -6 12 -13 99 -16 192 -3 100 -11 189 -19 215 -8 25
-20 66 -27 93 -8 26 -18 47 -22 47 -4 0 -8 6 -8 14 0 13 -29 75 -40 86 -7 7
-31 71 -37 100 -3 14 -9 30 -13 35 -14 18 -21 149 -11 220 10 70 16 98 46 210
66 243 77 315 62 400 -18 102 -26 124 -89 250 -33 66 -75 118 -212 264 -100
105 -169 186 -175 204 -2 7 -7 14 -11 17 -12 10 -90 172 -90 189 0 9 -4 21 -9
27 -11 11 -29 102 -41 205 -5 41 -14 95 -19 120 -6 24 -11 64 -11 88 0 40 2
43 23 37 12 -4 38 -9 57 -13z m110 -14 c0 13 10 14 28 2 12 -7 12 -12 1 -30
-8 -11 -20 -21 -28 -21 -9 0 -6 7 9 20 13 11 19 20 14 20 -6 0 -15 -5 -20 -10
-7 -7 -17 -2 -31 14 -12 13 -18 27 -15 31 4 3 15 -3 24 -15 10 -12 18 -17 18
-11z m-644 -24 c9 -19 20 -35 25 -35 12 0 11 -77 -1 -85 -5 -3 -10 -28 -10
-55 0 -27 -4 -51 -9 -54 -4 -3 -11 -32 -14 -66 -4 -33 -11 -68 -15 -77 -5 -10
-21 -56 -36 -102 -29 -91 -81 -204 -108 -236 -9 -11 -27 -31 -39 -45 -43 -49
-106 -156 -122 -207 -20 -61 -25 -370 -6 -404 15 -29 17 -262 2 -280 -6 -8
-14 -31 -18 -51 -4 -21 -11 -38 -16 -38 -5 0 -9 -5 -9 -11 0 -6 -18 -38 -40
-71 -22 -33 -40 -62 -40 -64 0 -15 -87 -104 -185 -189 -68 -59 -157 -149 -181
-183 -19 -28 -41 -143 -38 -197 5 -75 17 -147 34 -195 4 -14 15 -50 24 -80 16
-53 29 -87 47 -122 14 -27 11 -38 -9 -38 -10 0 -22 -4 -27 -8 -6 -5 -32 -17
-60 -26 -27 -10 -64 -24 -82 -32 -37 -16 -87 -18 -113 -4 -25 14 -71 109 -77
163 -3 23 -11 48 -17 56 -15 19 -15 489 0 522 7 13 20 44 30 69 18 44 25 55
52 85 6 7 12 17 12 21 0 4 38 46 84 93 46 47 103 109 126 136 24 28 56 63 72
80 30 31 128 169 128 180 0 4 6 21 14 38 25 57 28 79 35 315 6 151 12 237 20
245 6 6 11 18 11 27 0 19 53 123 81 159 11 14 37 44 58 66 20 22 75 85 121
140 47 55 87 102 90 105 19 18 59 94 75 140 9 30 21 65 26 78 5 13 12 62 15
110 6 71 11 92 30 115 13 16 24 33 24 38 0 21 20 6 36 -26z m98 -21 c7 -7 42
-10 86 -9 45 2 78 -2 82 -8 4 -7 11 -7 22 2 8 7 21 11 28 8 19 -7 -43 -29 -64
-24 -10 3 -15 1 -12 -4 6 -10 -86 -4 -133 7 -15 4 -23 2 -23 -7 0 -7 -8 -2
-17 11 -10 14 -16 26 -15 28 2 1 -4 10 -13 18 -8 9 -13 20 -10 24 5 8 31 -9
69 -46z m1991 -109 c-28 -23 -45 -31 -45 -21 0 5 63 46 70 46 3 0 -8 -11 -25
-25z m-2048 -67 c-3 -8 -6 -5 -6 6 -1 11 2 17 5 13 3 -3 4 -12 1 -19z m693
-23 c0 -5 -5 -3 -10 5 -5 8 -10 20 -10 25 0 6 5 3 10 -5 5 -8 10 -19 10 -25z
m-1740 21 c0 -2 -11 -6 -25 -8 -13 -3 -22 -1 -19 3 5 9 44 13 44 5z m1774 -69
c7 -6 6 -7 -4 -4 -8 2 -16 12 -17 23 -2 13 -1 15 4 4 3 -8 11 -19 17 -23z m32
-64 c-8 -9 -36 30 -29 40 3 5 12 -1 20 -13 8 -12 12 -24 9 -27z m-774 -21 c-7
-22 -12 -51 -12 -64 0 -14 -8 -43 -17 -64 -9 -22 -17 -42 -17 -46 -1 -3 -4
-10 -8 -14 -5 -4 -8 7 -8 24 0 18 4 32 8 32 9 0 46 135 46 168 0 14 3 19 10
12 6 -6 5 -23 -2 -48z m798 4 c0 -3 -4 -8 -10 -11 -5 -3 -10 -1 -10 4 0 6 5
11 10 11 6 0 10 -2 10 -4z m34 -51 c11 -19 21 -33 24 -31 6 7 58 -56 55 -66
-2 -4 2 -8 7 -8 6 0 24 -13 41 -30 17 -16 40 -32 51 -36 16 -5 18 -8 7 -15
-11 -7 -10 -9 4 -9 24 0 68 -30 61 -41 -3 -5 1 -9 8 -9 16 0 49 -36 41 -44 -4
-3 1 -6 11 -6 9 0 21 -11 26 -25 5 -14 17 -28 25 -31 8 -4 15 -12 15 -20 0 -8
5 -14 10 -14 6 0 10 -7 10 -16 0 -8 4 -13 9 -10 4 3 17 -12 27 -33 10 -22 22
-37 25 -35 7 4 22 -34 20 -48 -1 -5 3 -8 8 -8 5 0 16 -17 24 -39 47 -117 72
-316 42 -341 -13 -11 -15 -3 -15 72 0 48 -7 107 -16 139 -18 61 -71 175 -93
202 -8 9 -10 17 -5 17 5 0 -2 7 -15 16 -18 13 -20 18 -10 25 11 7 10 9 -3 9
-10 0 -18 5 -18 11 0 5 -4 8 -9 5 -5 -3 -11 4 -15 17 -3 12 -19 31 -36 42 -16
11 -32 27 -35 35 -3 8 -21 26 -40 39 -19 13 -33 26 -30 30 2 4 -8 16 -23 27
-42 30 -132 120 -132 132 0 6 -3 12 -8 14 -9 4 -82 103 -82 112 0 17 18 2 34
-29z m-1589 -15 c-10 -11 -23 -16 -29 -12 -7 4 -5 8 7 10 9 2 17 8 17 13 0 5
5 9 12 9 6 0 3 -8 -7 -20z m1228 -22 c-4 -19 -3 -20 7 -8 9 12 10 11 5 -7 -4
-14 -2 -23 5 -23 7 0 9 -8 4 -22 -3 -13 -3 -20 2 -15 4 4 16 -10 26 -30 10
-21 28 -53 39 -72 14 -23 17 -37 10 -44 -14 -14 -23 -4 -25 26 0 14 -4 23 -8
20 -5 -2 -8 5 -8 16 0 12 -6 20 -12 19 -7 -2 -12 4 -10 13 1 9 -5 22 -13 29
-8 7 -15 21 -15 32 0 11 -5 28 -11 39 -6 12 -8 27 -5 35 8 22 15 16 9 -8z
m-1288 -4 c-11 -8 -25 -12 -32 -10 -7 3 -13 1 -13 -4 0 -6 -3 -9 -7 -8 -5 1
-18 -3 -31 -10 -12 -7 -27 -10 -32 -7 -16 10 -1 25 26 25 13 0 24 4 24 8 0 4
14 9 32 10 18 2 34 5 37 7 2 3 7 5 10 5 3 0 -3 -7 -14 -16z m750 -114 c3 -5 1
-10 -4 -10 -6 0 -11 5 -11 10 0 6 2 10 4 10 3 0 8 -4 11 -10z m-5 -30 c0 -5
-5 -10 -11 -10 -5 0 -7 5 -4 10 3 6 8 10 11 10 2 0 4 -4 4 -10z m-20 -29 c0
-5 -7 -12 -16 -15 -14 -5 -15 -4 -4 9 14 17 20 19 20 6z m-330 -24 c0 -2 -10
-12 -22 -23 l-23 -19 19 23 c18 21 26 27 26 19z m1040 -64 c0 -4 20 -26 45
-50 25 -23 45 -47 45 -53 0 -5 7 -10 15 -10 8 0 15 -4 15 -8 0 -5 18 -28 41
-50 22 -23 37 -42 32 -42 -4 -1 3 -7 17 -15 14 -8 21 -14 17 -15 -4 0 2 -11
15 -24 57 -59 78 -85 78 -95 0 -6 4 -11 9 -11 5 0 12 -12 16 -27 3 -14 15 -38
26 -51 10 -14 19 -35 19 -48 0 -12 6 -29 13 -36 8 -7 18 -31 22 -53 11 -55 10
-228 -2 -232 -5 -2 -8 -18 -7 -35 1 -18 -4 -44 -12 -58 -13 -23 -13 -21 -8 30
15 141 13 167 -25 288 -5 17 -8 32 -6 32 3 0 -7 21 -20 46 -14 26 -22 50 -19
55 3 5 -1 12 -10 15 -9 3 -12 12 -9 21 4 10 2 14 -4 10 -6 -4 -14 0 -17 9 -4
10 -2 13 6 8 12 -8 -26 41 -89 114 -18 20 -33 41 -33 46 0 4 -16 23 -36 41
-19 18 -31 36 -26 39 6 3 13 1 15 -4 3 -6 4 -5 3 2 -2 7 -13 12 -25 10 -16 -3
-24 3 -28 17 -3 11 -9 18 -14 15 -5 -3 -9 1 -9 8 0 8 -8 21 -17 29 -37 33 -63
70 -57 81 4 6 3 8 -3 5 -11 -7 -25 28 -15 37 6 7 42 -29 42 -41z m-1100 -4
c-7 -11 -14 -18 -17 -15 -3 3 0 12 7 21 18 21 23 19 10 -6z m-82 -88 c-12 -15
-29 -37 -36 -47 -7 -11 -5 -4 4 15 18 39 35 60 47 61 5 0 -2 -13 -15 -29z
m-47 -112 l-10 -24 0 26 c-1 14 2 29 6 33 12 12 14 -9 4 -35z m-25 -44 c-4
-15 -2 -25 4 -25 7 0 8 -6 1 -19 -6 -10 -11 -89 -12 -175 0 -86 -4 -158 -9
-161 -8 -5 -5 291 4 355 1 14 4 31 4 38 1 6 5 12 8 12 3 0 3 -11 0 -25z m325
-2 c-19 -67 -7 -297 23 -433 13 -59 14 -102 5 -152 -5 -29 -11 -61 -13 -70 -7
-47 -16 -23 -16 44 0 41 -7 124 -16 184 -17 123 -19 289 -3 379 6 33 13 63 15
67 10 16 12 7 5 -19z m1687 -419 c-3 -14 -5 -12 -10 9 -3 19 -2 25 4 19 6 -6
8 -18 6 -28z m-2031 -26 c-2 -13 -4 -5 -4 17 -1 22 1 32 4 23 2 -10 2 -28 0
-40z m1980 -170 c-3 -8 -6 -5 -6 6 -1 11 2 17 5 13 3 -3 4 -12 1 -19z m-319
-124 c-1 -19 -5 -37 -10 -40 -5 -3 -8 14 -6 39 3 52 18 53 16 1z m-18 -73 c0
-16 -12 -41 -20 -41 -4 0 -5 11 -2 25 4 23 22 36 22 16z m-35 -108 c-14 -150
-17 -283 -8 -283 6 0 11 -10 11 -22 1 -32 67 -200 75 -192 4 4 7 1 7 -7 0 -8
11 -36 25 -62 14 -26 27 -61 28 -77 1 -17 6 -30 10 -30 5 0 5 -9 2 -20 -4 -12
-2 -20 5 -20 8 0 11 -11 8 -32 -3 -17 1 -50 8 -74 7 -23 10 -45 7 -48 -3 -3
-6 -48 -6 -100 0 -79 4 -101 22 -131 27 -46 27 -46 -9 -34 -35 13 -37 22 -44
204 -5 124 -18 195 -51 270 -21 46 -45 97 -60 125 -23 44 -55 119 -62 150 -10
40 -19 228 -13 246 5 11 10 34 13 50 8 48 30 144 34 144 2 0 1 -26 -2 -57z
m272 -5 c-3 -7 -5 -2 -5 12 0 14 2 19 5 13 2 -7 2 -19 0 -25z m18 -83 c10 -65
25 -136 41 -192 9 -29 12 -58 8 -64 -5 -9 -2 -10 10 -6 16 6 17 3 12 -19 -5
-19 -4 -24 6 -18 7 4 10 4 6 0 -4 -5 2 -23 13 -42 10 -19 19 -46 19 -61 0 -14
3 -23 6 -20 8 8 44 -55 37 -65 -2 -5 0 -8 5 -8 10 0 84 -134 82 -146 -1 -4 2
-10 7 -13 16 -11 33 -62 33 -97 0 -34 -19 -72 -52 -106 -26 -26 -31 -22 -13
12 9 17 20 28 24 26 7 -5 5 14 -13 104 -4 23 -49 114 -63 128 -19 19 -16 27 5
11 9 -7 7 -2 -6 12 -12 14 -19 29 -15 32 3 4 1 7 -6 7 -8 0 -11 7 -7 15 3 8 1
15 -4 15 -5 0 -12 11 -16 25 -3 14 -10 25 -15 25 -5 0 -9 9 -9 19 0 11 -4 22
-9 25 -5 3 -14 20 -20 36 -8 24 -7 29 2 23 9 -5 9 -3 1 8 -6 8 -14 23 -17 34
-3 11 -17 59 -30 108 -14 48 -25 88 -25 90 0 1 -3 18 -6 37 -14 92 -17 135 -7
120 6 -8 13 -33 16 -55z m-2460 -494 c0 -124 -8 -140 -18 -37 -5 47 7 156 16
156 1 0 2 -54 2 -119z m372 -33 c-3 -8 -6 -5 -6 6 -1 11 2 17 5 13 3 -3 4 -12
1 -19z m23 -79 c0 -6 -4 -7 -10 -4 -5 3 -10 11 -10 16 0 6 5 7 10 4 6 -3 10
-11 10 -16z m17 -79 c-1 -11 -5 -20 -9 -20 -10 0 -10 4 -2 24 8 22 13 20 11
-4z m-397 -72 c0 -47 -6 -48 -13 -1 -4 28 -1 43 10 43 2 0 3 -19 3 -42z m419
-8 c0 -10 -3 -8 -9 5 -12 27 -12 43 0 25 5 -8 9 -22 9 -30z m20 -65 c0 -5 -4
-3 -9 5 -5 8 -9 22 -9 30 0 16 17 -16 18 -35z m22 -83 c-4 -14 -12 -27 -19
-30 -8 -2 -7 6 3 24 9 19 11 32 5 38 -6 6 -10 17 -10 26 1 9 5 6 14 -9 8 -14
11 -35 7 -49z m-425 21 c4 -16 7 -31 6 -35 -1 -5 3 -8 8 -8 6 0 10 -7 10 -15
0 -26 62 -80 95 -84 47 -5 49 -17 2 -18 -45 -2 -87 18 -87 42 0 8 -3 15 -8 15
-10 0 -36 60 -29 67 4 3 0 12 -8 20 -17 16 -20 43 -6 43 5 0 12 -12 17 -27z
m389 -73 c-3 -5 -10 -10 -16 -10 -5 0 -9 5 -9 10 0 6 7 10 16 10 8 0 12 -4 9
-10z m-41 -21 c-3 -5 -10 -7 -15 -3 -5 3 -7 10 -3 15 3 5 10 7 15 3 5 -3 7
-10 3 -15z m-40 -14 c-4 -9 -18 -14 -38 -14 -30 2 -30 2 -3 6 15 2 25 9 22 14
-4 5 1 9 9 9 10 0 13 -6 10 -15z m-69 -25 c3 -5 1 -10 -4 -10 -6 0 -11 5 -11
10 0 6 2 10 4 10 3 0 8 -4 11 -10z"/>
<path d="M3738 5533 c7 -3 16 -2 19 1 4 3 -2 6 -13 5 -11 0 -14 -3 -6 -6z"/>
<path d="M2295 6310 c3 -5 8 -10 11 -10 2 0 4 5 4 10 0 6 -5 10 -11 10 -5 0
-7 -4 -4 -10z"/>
<path d="M2636 6033 c-6 -14 -5 -15 5 -6 7 7 10 15 7 18 -3 3 -9 -2 -12 -12z"/>
<path d="M1340 5140 c-9 -6 -10 -10 -3 -10 6 0 15 5 18 10 8 12 4 12 -15 0z"/>
<path d="M3655 4650 c-3 -5 -1 -10 4 -10 6 0 11 5 11 10 0 6 -2 10 -4 10 -3 0
-8 -4 -11 -10z"/>
<path d="M4031 3004 c0 -11 3 -14 6 -6 3 7 2 16 -1 19 -3 4 -6 -2 -5 -13z"/>
<path d="M1945 5000 c3 -5 8 -10 11 -10 2 0 4 5 4 10 0 6 -5 10 -11 10 -5 0
-7 -4 -4 -10z"/>
<path d="M2531 4484 c0 -11 3 -14 6 -6 3 7 2 16 -1 19 -3 4 -6 -2 -5 -13z"/>
<path d="M3531 4444 c0 -11 3 -14 6 -6 3 7 2 16 -1 19 -3 4 -6 -2 -5 -13z"/>
</g>
</svg>
